<svg xmlns="http://www.w3.org/2000/svg" width="120" height="43" viewBox="0 0 120 43" fill="none"><path d="M21.1104 31.4614L19.2306 26.6157L17.352 31.4614H21.1104ZM20.1711 23.9979C20.3529 23.9979 20.4886 24.046 20.5806 24.1435C20.6715 24.2386 20.7517 24.3843 20.819 24.5769L25.0046 35.3206C25.0164 35.3547 25.0211 35.3946 25.0211 35.4393C25.0211 35.5638 24.9751 35.6718 24.8842 35.7622C24.7934 35.8527 24.686 35.8985 24.5597 35.8985H23.3301C23.1024 35.8985 22.9431 35.8491 22.8522 35.754C22.7613 35.6577 22.6988 35.5638 22.6646 35.4733L21.9294 33.586H16.5319L15.7979 35.4733C15.7637 35.5638 15.7011 35.6577 15.6091 35.754C15.5182 35.8491 15.3589 35.8985 15.1312 35.8985H13.9016C13.7753 35.8985 13.6679 35.8527 13.577 35.7622C13.4862 35.6718 13.4402 35.5638 13.4402 35.4393C13.4402 35.3946 13.4461 35.3547 13.4579 35.3206L17.6423 24.5769C17.7107 24.3843 17.791 24.2386 17.8818 24.1435C17.9727 24.046 18.1096 23.9979 18.2913 23.9979" fill="white"></path><path d="M34.6715 35.4393C34.6715 35.5638 34.6267 35.6706 34.5358 35.7622C34.4437 35.8527 34.3352 35.8985 34.2113 35.8985H32.9121C32.787 35.8985 32.6796 35.8527 32.5875 35.7622C32.4967 35.6706 32.4507 35.5638 32.4507 35.4393V31.122C32.4507 30.4409 32.2925 29.8959 31.9727 29.4884C31.6541 29.0809 31.1644 28.8765 30.5048 28.8765C29.9006 28.8765 29.425 29.0809 29.0781 29.4884C28.73 29.8959 28.5565 30.4409 28.5565 31.122V35.4393C28.5565 35.5638 28.5105 35.6706 28.4196 35.7622C28.3288 35.8527 28.2202 35.8985 28.0951 35.8985H26.7982C26.672 35.8985 26.5646 35.8527 26.4737 35.7622C26.3817 35.6706 26.3368 35.5638 26.3368 35.4393V27.5177C26.3368 27.392 26.3817 27.2851 26.4737 27.1935C26.5646 27.1043 26.672 27.0585 26.7982 27.0585H28.0951C28.2202 27.0585 28.3288 27.1043 28.4196 27.1935C28.5105 27.2851 28.5565 27.392 28.5565 27.5177V27.9088C28.8527 27.6128 29.2008 27.3697 29.5985 27.1771C29.9973 26.9845 30.4705 26.8882 31.0169 26.8882C31.7108 26.8882 32.2925 26.9951 32.7586 27.2111C33.2259 27.4261 33.6012 27.7162 33.8856 28.0779C34.1712 28.4408 34.3729 28.8624 34.4921 29.3451C34.6125 29.8266 34.6715 30.3328 34.6715 30.866" fill="white"></path><path d="M38.6852 31.0023C38.651 31.3206 38.651 31.6365 38.6852 31.9548C38.7536 32.6911 38.9814 33.2208 39.3684 33.5438C39.7555 33.8667 40.2275 34.0288 40.7869 34.0288C41.3438 34.0288 41.8135 33.8644 42.1958 33.5355C42.577 33.2067 42.7965 32.7358 42.8531 32.1239C42.8755 31.9548 42.8873 31.7398 42.8873 31.4779C42.8873 31.2172 42.8755 31.0023 42.8531 30.832C42.7965 30.2436 42.577 29.7785 42.1958 29.4391C41.8135 29.0973 41.3438 28.9282 40.7869 28.9282C40.2275 28.9282 39.7555 29.0891 39.3684 29.4133C38.9814 29.7351 38.7536 30.2659 38.6852 31.0023ZM40.2735 26.8882C40.6264 26.8882 40.9426 26.9211 41.2223 26.9904C41.5008 27.0585 41.7462 27.1431 41.9563 27.2453C42.1675 27.3463 42.3457 27.4578 42.4944 27.5764C42.6419 27.6962 42.7622 27.8055 42.8531 27.9088V24.2868C42.8531 24.1635 42.8991 24.0543 42.99 23.9639C43.0809 23.8734 43.1894 23.8276 43.3145 23.8276H44.6126C44.7376 23.8276 44.845 23.8734 44.9371 23.9639C45.0279 24.0543 45.074 24.1635 45.074 24.2868V35.4393C45.074 35.565 45.0279 35.6718 44.9371 35.7623C44.845 35.8527 44.7376 35.8985 44.6126 35.8985H43.3145C43.1894 35.8985 43.0809 35.8527 42.99 35.7623C42.8991 35.6718 42.8531 35.565 42.8531 35.4393V35.0482C42.7622 35.1516 42.6419 35.2608 42.4944 35.3794C42.3457 35.4992 42.1675 35.6084 41.9563 35.7118C41.7462 35.8128 41.5008 35.8985 41.2223 35.9666C40.9426 36.0336 40.6264 36.0676 40.2735 36.0676C39.7048 36.0676 39.1891 35.9584 38.7277 35.7376C38.2675 35.5156 37.8733 35.2209 37.5488 34.8533C37.2243 34.4845 36.9682 34.0593 36.7818 33.5778C36.593 33.0951 36.4868 32.5948 36.4655 32.0734C36.4537 31.9031 36.4478 31.7046 36.4478 31.4779C36.4478 31.2513 36.4537 31.0528 36.4655 30.8837C36.4868 30.361 36.593 29.8607 36.7818 29.3792C36.9682 28.8965 37.2243 28.4714 37.5488 28.1038C37.8733 27.7362 38.2675 27.4402 38.7277 27.2194C39.1891 26.9986 39.7048 26.8882 40.2735 26.8882Z" fill="white"></path><path d="M49.19 23.8276C49.3151 23.8276 49.4236 23.8734 49.5145 23.9639C49.6053 24.0543 49.6514 24.1635 49.6514 24.288V25.614C49.6514 25.7373 49.6053 25.8465 49.5145 25.9358C49.4236 26.0274 49.3151 26.072 49.19 26.072H47.7208C47.5957 26.072 47.4872 26.0274 47.3963 25.9358C47.3054 25.8465 47.2594 25.7373 47.2594 25.614V24.288C47.2594 24.1635 47.3054 24.0543 47.3963 23.9639C47.4872 23.8734 47.5957 23.8276 47.7208 23.8276" fill="white"></path><path d="M49.5653 35.4393C49.5653 35.5638 49.5204 35.6706 49.4284 35.7622C49.3375 35.8527 49.2301 35.8985 49.105 35.8985H47.807C47.6807 35.8985 47.5733 35.8527 47.4825 35.7622C47.3904 35.6706 47.3456 35.5638 47.3456 35.4393V27.5177C47.3456 27.392 47.3904 27.2851 47.4825 27.1935C47.5733 27.1043 47.6807 27.0585 47.807 27.0585H49.105C49.2301 27.0585 49.3375 27.1043 49.4284 27.1935C49.5204 27.2851 49.5653 27.392 49.5653 27.5177" fill="white"></path><path d="M60.1727 35.4393C60.1727 35.5638 60.1278 35.6706 60.037 35.7622C59.9449 35.8527 59.8375 35.8985 59.7124 35.8985H58.4144C58.2881 35.8985 58.1807 35.8527 58.0899 35.7622C57.999 35.6706 57.953 35.5638 57.953 35.4393V31.122C57.953 30.4409 57.7937 29.8959 57.4751 29.4884C57.1553 29.0809 56.6656 28.8765 56.0059 28.8765C55.4017 28.8765 54.9262 29.0809 54.5793 29.4884C54.2323 29.8959 54.0589 30.4409 54.0589 31.122V35.4393C54.0589 35.5638 54.0128 35.6706 53.922 35.7622C53.8299 35.8527 53.7225 35.8985 53.5963 35.8985H52.2994C52.1731 35.8985 52.0658 35.8527 51.9749 35.7622C51.8829 35.6706 51.838 35.5638 51.838 35.4393V27.5177C51.838 27.392 51.8829 27.2851 51.9749 27.1935C52.0658 27.1043 52.1731 27.0585 52.2994 27.0585H53.5963C53.7225 27.0585 53.8299 27.1043 53.922 27.1935C54.0128 27.2851 54.0589 27.392 54.0589 27.5177V27.9088C54.3539 27.6128 54.702 27.3697 55.1008 27.1771C55.4985 26.9845 55.9717 26.8882 56.5181 26.8882C57.2131 26.8882 57.7937 26.9951 58.2598 27.2111C58.7271 27.4261 59.1024 27.7162 59.3879 28.0779C59.6723 28.4408 59.8741 28.8624 59.9945 29.3451C60.1137 29.8266 60.1727 30.3328 60.1727 30.866" fill="white"></path><path d="M64.9708 34.0288C65.3579 34.0288 65.7025 33.9747 66.0046 33.8667C66.3055 33.7586 66.5592 33.6142 66.7645 33.4333C66.9698 33.2525 67.1232 33.0481 67.2259 32.8214C67.3286 32.5948 67.3793 32.3622 67.3793 32.1238V31.9547L65.0558 32.3622C64.5897 32.4409 64.2534 32.5584 64.0492 32.711C63.8439 32.8637 63.7412 33.0692 63.7412 33.3311C63.7412 33.5696 63.8628 33.7445 64.1082 33.8585C64.3537 33.9712 64.6404 34.0288 64.9708 34.0288ZM62.1187 29.2347C62.1635 28.9963 62.2697 28.7414 62.4349 28.469C62.5989 28.1965 62.8326 27.9428 63.1347 27.7044C63.4356 27.466 63.8073 27.271 64.2451 27.1184C64.6841 26.9645 65.1927 26.8882 65.7733 26.8882C66.355 26.8882 66.879 26.9645 67.3451 27.1184C67.8124 27.271 68.2136 27.4942 68.5487 27.789C68.885 28.0838 69.1447 28.4549 69.3264 28.9023C69.5093 29.3498 69.6001 29.863 69.6001 30.4409V35.4381C69.6001 35.5649 69.5541 35.6718 69.4633 35.7622C69.3724 35.8527 69.2638 35.8985 69.1388 35.8985H67.8407C67.7156 35.8985 67.6071 35.8527 67.5162 35.7622C67.4253 35.6718 67.3793 35.5649 67.3793 35.4381V34.8779C67.1409 35.2067 66.7964 35.4874 66.3456 35.72C65.896 35.9525 65.3237 36.0676 64.6298 36.0676C64.1401 36.0676 63.7011 36.0018 63.3141 35.8726C62.927 35.7423 62.6025 35.5591 62.3405 35.3206C62.0785 35.0822 61.8768 34.8015 61.734 34.4786C61.5924 34.1556 61.5216 33.8021 61.5216 33.4169C61.5216 32.6335 61.8001 32.0216 62.3582 31.5801C62.9152 31.1385 63.661 30.8378 64.5956 30.6793L67.3793 30.2036C67.3793 29.7385 67.2259 29.4097 66.9191 29.2183C66.6111 29.0257 66.2288 28.9282 65.7733 28.9282C65.4889 28.9282 65.267 28.9681 65.1077 29.0468C64.9484 29.1267 64.7938 29.2347 64.6463 29.3698C64.5437 29.4614 64.4504 29.5224 64.3643 29.5565C64.2793 29.5917 64.1849 29.6082 64.0823 29.6082H62.4939C62.3795 29.6082 62.2839 29.5741 62.2036 29.506C62.1246 29.4391 62.0951 29.3475 62.1187 29.2347Z" fill="white"></path><path d="M5.31765 14.6275L8.77139 7.9814C8.8399 7.84517 8.93321 7.72067 9.05369 7.60675C9.17299 7.49401 9.32891 7.43646 9.5238 7.43646H10.1734C10.2986 7.43646 10.4061 7.48226 10.4983 7.57387C10.5892 7.66313 10.6341 7.77235 10.6341 7.89567V18.8778C10.6341 19.0035 10.5892 19.1104 10.4983 19.202C10.4061 19.2924 10.2986 19.3382 10.1734 19.3382H9.47183C9.34662 19.3382 9.23796 19.2924 9.14701 19.202C9.05606 19.1104 9.00999 19.0035 9.00999 18.8778V10.82L6.34409 15.937C6.25195 16.1073 6.1551 16.2412 6.05234 16.3363C5.94957 16.4338 5.81374 16.482 5.64247 16.482H4.99282C4.82155 16.482 4.68454 16.4338 4.58178 16.3363C4.47901 16.2412 4.38216 16.1073 4.29121 15.937L1.62412 10.82V18.8778C1.62412 19.0035 1.57806 19.1104 1.48711 19.202C1.39616 19.2924 1.28867 19.3382 1.16228 19.3382H0.46185C0.336645 19.3382 0.227978 19.2924 0.137027 19.202C0.0448961 19.1104 1.14441e-05 19.0035 1.14441e-05 18.8778V7.89567C1.14441e-05 7.77235 0.0448961 7.66313 0.137027 7.57387C0.227978 7.48226 0.336645 7.43646 0.46185 7.43646H1.11149C1.30521 7.43646 1.46112 7.49401 1.5816 7.60675C1.7009 7.72067 1.79539 7.84517 1.8639 7.9814" fill="white"></path><path d="M14.4127 14.119H19.2177V14.0673C19.2177 13.3756 18.998 12.8236 18.5586 12.4102C18.1204 11.9968 17.5369 11.7901 16.8069 11.7901C16.4762 11.7901 16.1679 11.8441 15.8844 11.951C15.5986 12.0591 15.347 12.2117 15.1308 12.4102C14.9147 12.6087 14.7434 12.8494 14.6182 13.1325C14.4918 13.4167 14.4245 13.7279 14.4127 14.0673V14.119ZM12.8913 14.0673C12.9374 13.5471 13.0626 13.0597 13.2669 12.6063C13.4725 12.1518 13.7406 11.756 14.0713 11.4143C14.4009 11.0749 14.7977 10.8083 15.2596 10.6157C15.7214 10.4231 16.2364 10.3279 16.8069 10.3279C17.4223 10.3279 17.9716 10.4266 18.457 10.6251C18.9413 10.8235 19.3547 11.1089 19.6972 11.4836C20.0386 11.857 20.3008 12.3104 20.4827 12.8436C20.6646 13.3756 20.7568 13.9722 20.7568 14.6287V15.0868C20.7568 15.2124 20.7107 15.3193 20.6197 15.4109C20.5288 15.5013 20.4201 15.5471 20.2949 15.5471H14.4127V15.6481C14.4363 16.4197 14.6725 17.0117 15.1226 17.4251C15.5726 17.8385 16.1337 18.0452 16.8069 18.0452C17.4341 18.0452 17.903 17.9582 18.2172 17.7821C18.5314 17.6059 18.7842 17.411 18.9791 17.1949C19.07 17.1056 19.1492 17.0434 19.2177 17.0081C19.2862 16.9741 19.389 16.9576 19.5248 16.9576H20.0386C20.1638 16.9576 20.2772 17.0023 20.38 17.0939C20.4827 17.1843 20.5229 17.2923 20.4993 17.4168C20.4662 17.62 20.3682 17.8443 20.2087 18.0886C20.0492 18.3317 19.8177 18.5584 19.5165 18.7686C19.2141 18.9777 18.8385 19.1538 18.3885 19.2948C17.9385 19.4357 17.4105 19.5073 16.8069 19.5073C16.2364 19.5073 15.7238 19.4087 15.2679 19.2102C14.8119 19.0129 14.415 18.7404 14.0796 18.3928C13.7441 18.0487 13.4725 17.64 13.2669 17.169C13.0626 16.7004 12.9374 16.1872 12.8913 15.6317C12.8346 15.1102 12.8346 14.59 12.8913 14.0673Z" fill="white"></path><path d="M27.0124 10.4982C27.1376 10.4982 27.2463 10.5428 27.3372 10.6332C27.4282 10.7248 27.4742 10.8317 27.4742 10.9574V11.5C27.4742 11.6256 27.4282 11.7325 27.3372 11.8241C27.2463 11.9134 27.1376 11.9592 27.0124 11.9592H26.0214C24.7103 11.9592 24.0547 12.611 24.0547 13.9146V18.8778C24.0547 19.0034 24.0099 19.1103 23.9177 19.2019C23.8268 19.2924 23.7181 19.337 23.5929 19.337H22.961C22.8346 19.337 22.7271 19.2924 22.6362 19.2019C22.544 19.1103 22.4991 19.0034 22.4991 18.8778V10.9574C22.4991 10.8317 22.544 10.7248 22.6362 10.6332C22.7271 10.5428 22.8346 10.4982 22.961 10.4982H23.5929C23.7181 10.4982 23.8268 10.5428 23.9177 10.6332C24.0099 10.7248 24.0547 10.8317 24.0547 10.9574V11.4835C24.2827 11.1441 24.5556 10.894 24.8757 10.7354C25.1934 10.5769 25.6104 10.4982 26.123 10.4982" fill="white"></path><path d="M29.8333 15.5119C29.8782 15.9652 29.9786 16.3504 30.1321 16.6687C30.2857 16.9858 30.4735 17.2465 30.6956 17.4509C30.9188 17.6541 31.1668 17.8044 31.4397 17.9019C31.7137 17.997 31.9925 18.0452 32.2771 18.0452C32.8252 18.0452 33.2918 17.9442 33.6792 17.7398C34.0666 17.5366 34.369 17.196 34.5852 16.7192C34.6655 16.5384 34.7482 16.4162 34.8332 16.354C34.9194 16.2929 35.0246 16.2612 35.1498 16.2612H35.6624C35.7888 16.2612 35.8998 16.3058 35.9967 16.3962C36.0935 16.4879 36.136 16.5947 36.1242 16.7192C36.1136 16.9917 36.025 17.29 35.8596 17.6118C35.6943 17.9359 35.4486 18.2354 35.125 18.5138C34.7989 18.7909 34.4009 19.0258 33.9284 19.2196C33.4548 19.4122 32.9043 19.5073 32.2771 19.5073C31.6511 19.5073 31.0948 19.4063 30.6105 19.202C30.1262 18.9988 29.7152 18.7193 29.3797 18.3693C29.0431 18.017 28.7809 17.6036 28.5931 17.1267C28.4053 16.6523 28.299 16.1414 28.2765 15.5976C28.2659 15.4168 28.2564 15.1924 28.2517 14.9259C28.2458 14.6593 28.2541 14.4302 28.2765 14.2376C28.3226 13.6939 28.4395 13.183 28.6273 12.7073C28.8151 12.2317 29.075 11.8183 29.4057 11.466C29.7364 11.1148 30.1404 10.8376 30.62 10.6333C31.0983 10.4289 31.6511 10.3279 32.2771 10.3279C32.9043 10.3279 33.4548 10.4231 33.9284 10.6157C34.4009 10.8083 34.7989 11.0443 35.125 11.3215C35.4486 11.5998 35.6943 11.8993 35.8596 12.2235C36.025 12.5453 36.1136 12.8436 36.1242 13.1149C36.136 13.2405 36.0935 13.3474 35.9967 13.439C35.8998 13.5294 35.7888 13.5741 35.6624 13.5741H35.1498C35.0246 13.5741 34.9194 13.5424 34.8332 13.4813C34.7482 13.419 34.6655 13.2969 34.5852 13.1149C34.369 12.6404 34.0666 12.2986 33.6792 12.0955C33.2918 11.8911 32.8252 11.7901 32.2771 11.7901C31.9925 11.7901 31.7102 11.8383 31.4314 11.9334C31.1527 12.0309 30.9011 12.18 30.679 12.3844C30.457 12.5887 30.2692 12.8494 30.1156 13.1665C29.9609 13.4836 29.8676 13.8689 29.8333 14.3234C29.7979 14.7415 29.7979 15.1384 29.8333 15.5119Z" fill="white"></path><path d="M40.6032 18.0452C41.0143 18.0452 41.3899 17.9841 41.7324 17.8584C42.0738 17.7339 42.3667 17.5601 42.6124 17.3393C42.8581 17.1185 43.0459 16.8555 43.177 16.5489C43.3081 16.2436 43.3731 15.903 43.3731 15.5295V15.1044L41.3557 15.4273C40.6375 15.5413 40.0682 15.7221 39.6453 15.9723C39.2248 16.2213 39.0134 16.5431 39.0134 16.94C39.0134 17.0657 39.0417 17.1902 39.0984 17.3147C39.1563 17.4391 39.2473 17.5589 39.3725 17.6717C39.4988 17.7844 39.6607 17.876 39.8603 17.9442C40.0587 18.0111 40.3079 18.0452 40.6032 18.0452ZM37.4578 17.1115C37.4578 16.657 37.5487 16.2612 37.7306 15.9206C37.9137 15.5812 38.1641 15.2911 38.483 15.0539C38.802 14.8143 39.1764 14.6228 39.604 14.4749C40.0316 14.3281 40.4839 14.2141 40.9623 14.1366L43.3731 13.7444V13.5224C43.3731 12.9458 43.1829 12.5112 42.8014 12.2235C42.4187 11.9334 41.9439 11.7901 41.3734 11.7901C40.8714 11.7901 40.4922 11.8794 40.2359 12.0602C39.9796 12.2434 39.7599 12.4584 39.578 12.7073C39.5095 12.7978 39.4351 12.8612 39.3559 12.8941C39.2756 12.9281 39.1669 12.9458 39.0311 12.9458H38.5185C38.3921 12.9458 38.2811 12.9011 38.1842 12.8095C38.0873 12.7179 38.0448 12.611 38.0555 12.4854C38.0791 12.2376 38.1783 11.9827 38.3555 11.7208C38.5326 11.4601 38.7712 11.2275 39.0736 11.0244C39.376 10.82 39.7233 10.6532 40.1166 10.5229C40.5099 10.3925 40.9281 10.3279 41.3734 10.3279C41.886 10.3279 42.362 10.4007 42.8014 10.5487C43.2396 10.6955 43.6152 10.9116 43.9294 11.1947C44.2424 11.4777 44.4881 11.83 44.6641 12.2493C44.8413 12.6686 44.9299 13.1489 44.9299 13.6939V18.8778C44.9299 19.0035 44.8838 19.1104 44.7929 19.202C44.7019 19.2912 44.5932 19.3382 44.468 19.3382H43.8349C43.7097 19.3382 43.6011 19.2912 43.5101 19.202C43.4192 19.1104 43.3731 19.0035 43.3731 18.8778V18.1814C43.2703 18.3975 43.1109 18.5877 42.8947 18.751C42.6786 18.9154 42.4305 19.054 42.1518 19.1679C41.8718 19.2807 41.5813 19.3664 41.2789 19.4228C40.9777 19.4791 40.6942 19.5073 40.4332 19.5073C39.9879 19.5073 39.5803 19.4439 39.2106 19.3206C38.8398 19.1961 38.5267 19.0293 38.2692 18.8179C38.0141 18.6101 37.8133 18.3576 37.6716 18.0628C37.5287 17.7668 37.4578 17.4509 37.4578 17.1115Z" fill="white"></path><path d="M55.2391 18.8778C55.2391 19.0035 55.1931 19.1104 55.1021 19.202C55.0112 19.2912 54.9037 19.337 54.7773 19.337H54.1454C54.0202 19.337 53.9115 19.2912 53.8205 19.202C53.7296 19.1104 53.6835 19.0035 53.6835 18.8778V14.3903C53.6835 13.5189 53.4721 12.8671 53.0504 12.436C52.6287 12.005 52.0417 11.7901 51.2905 11.7901C50.5723 11.7901 49.9935 12.005 49.5541 12.436C49.1159 12.8671 48.8962 13.5189 48.8962 14.3903V18.8778C48.8962 19.0035 48.8513 19.1104 48.7592 19.202C48.6671 19.2912 48.5596 19.337 48.4344 19.337H47.8025C47.6773 19.337 47.5686 19.2912 47.4776 19.202C47.3855 19.1104 47.3394 19.0035 47.3394 18.8778V10.9574C47.3394 10.8318 47.3855 10.7249 47.4776 10.6333C47.5686 10.5429 47.6773 10.4982 47.8025 10.4982H48.4344C48.5596 10.4982 48.6671 10.5429 48.7592 10.6333C48.8513 10.7249 48.8962 10.8318 48.8962 10.9574V11.4836C49.1124 11.2005 49.4348 10.9375 49.8624 10.6932C50.29 10.4489 50.8511 10.3279 51.5456 10.3279C52.0819 10.3279 52.5779 10.4148 53.0339 10.591C53.4898 10.7672 53.8796 11.0162 54.2044 11.3391C54.5292 11.6609 54.7832 12.0614 54.9651 12.537C55.1482 13.0139 55.2391 13.5471 55.2391 14.1366" fill="white"></path><path d="M59.8209 16.3622C59.8209 16.5783 59.841 16.7791 59.8812 16.9658C59.9213 17.1526 59.9922 17.3146 60.095 17.4509C60.1977 17.5859 60.343 17.6916 60.5308 17.7645C60.7186 17.8384 60.9608 17.876 61.2572 17.876H62.1632C62.2896 17.876 62.3971 17.9207 62.488 18.0111C62.5801 18.1027 62.625 18.2096 62.625 18.3352V18.8778C62.625 19.0035 62.5801 19.1104 62.488 19.202C62.3971 19.2924 62.2896 19.3382 62.1632 19.3382H61.086C60.095 19.3382 59.3768 19.0822 58.9315 18.5736C58.4874 18.0628 58.2653 17.3264 58.2653 16.3622V11.9592H57.0003C56.8751 11.9592 56.7664 11.9146 56.6755 11.8242C56.5833 11.7325 56.5384 11.6257 56.5384 11.5V10.9562C56.5384 10.8318 56.5833 10.7249 56.6755 10.6333C56.7664 10.5428 56.8751 10.4982 57.0003 10.4982H58.2653V7.72654C58.2653 7.60205 58.3102 7.494 58.4012 7.40357C58.4921 7.31314 58.6008 7.26733 58.7272 7.26733H59.3591C59.4843 7.26733 59.593 7.31314 59.6839 7.40357C59.7749 7.494 59.8209 7.60205 59.8209 7.72654V10.4982H61.9931C62.1171 10.4982 62.2258 10.5428 62.3179 10.6333C62.4089 10.7249 62.4538 10.8318 62.4538 10.9562V11.5C62.4538 11.6257 62.4089 11.7325 62.3179 11.8242C62.2258 11.9146 62.1171 11.9592 61.9931 11.9592H59.8209" fill="white"></path><path d="M65.5651 18.8778C65.5651 19.0035 65.519 19.1104 65.4281 19.202C65.3371 19.2912 65.2285 19.337 65.1032 19.337H64.4713C64.3449 19.337 64.2374 19.2912 64.1465 19.202C64.0544 19.1104 64.0083 19.0035 64.0083 18.8778V10.9574C64.0083 10.8318 64.0544 10.7249 64.1465 10.6333C64.2374 10.5428 64.3449 10.4982 64.4713 10.4982H65.1032C65.2285 10.4982 65.3371 10.5428 65.4281 10.6333C65.519 10.7249 65.5651 10.8318 65.5651 10.9574V18.8778ZM65.7364 8.69545C65.7364 8.81994 65.6903 8.92799 65.5993 9.01959C65.5084 9.10885 65.3997 9.15466 65.2745 9.15466H64.2989C64.1737 9.15466 64.0662 9.10885 63.974 9.01959C63.8831 8.92799 63.8382 8.81994 63.8382 8.69545V7.72654C63.8382 7.60205 63.8831 7.494 63.974 7.40357C64.0662 7.31314 64.1737 7.26733 64.2989 7.26733H65.2745C65.3997 7.26733 65.5084 7.31314 65.5993 7.40357C65.6903 7.494 65.7364 7.60205 65.7364 7.72654" fill="white"></path><path d="M69.6 18.8778C69.6 19.0035 69.5539 19.1104 69.463 19.202C69.372 19.2912 69.2634 19.337 69.1382 19.337H68.5062C68.3799 19.337 68.2724 19.2912 68.1802 19.202C68.0893 19.1104 68.0432 19.0035 68.0432 18.8778V7.72654C68.0432 7.60205 68.0893 7.494 68.1802 7.40357C68.2724 7.31314 68.3799 7.26733 68.5062 7.26733H69.1382C69.2634 7.26733 69.372 7.31314 69.463 7.40357C69.5539 7.494 69.6 7.60205 69.6 7.72654" fill="white"></path><path fill-rule="evenodd" clip-rule="evenodd" d="M120 21.6674C120 10.0215 110.526 0.547363 98.88 0.547363C87.2341 0.547363 77.76 10.0215 77.76 21.6674C77.76 33.3133 87.2341 42.7874 98.88 42.7874C110.526 42.7874 120 33.3133 120 21.6674ZM112.536 23.5435L113.611 25.4063L113.618 25.3994C114.289 26.5568 113.892 28.036 112.734 28.7003C111.577 29.3645 110.098 28.9742 109.434 27.8168L108.447 26.1185H108.434C107.789 24.9893 106.598 22.9112 105.426 20.8666L105.423 20.8607L104.338 18.9689L105.941 16.1885C106.407 15.4284 107.044 15.2024 107.564 15.2845C108.824 17.3185 111.05 20.9686 111.05 20.9686C111.55 21.8246 112.056 22.7012 112.536 23.5435ZM93.2715 15.9013C92.1142 15.237 90.6418 15.6274 89.9707 16.7847L84.8413 25.4067C84.1771 26.564 84.5674 28.0364 85.7247 28.7075C86.8821 29.3787 88.3545 28.9815 89.0256 27.8241L94.1549 19.2022C94.8192 18.0448 94.4289 16.5724 93.2715 15.9013ZM106.194 13.9905C106.057 13.9768 105.968 13.9905 105.968 13.9905H105.975C105.523 14.0248 105.037 14.285 104.66 14.9014L97.3874 27.5569C96.7163 28.7143 95.2439 29.1046 94.0866 28.4404C92.9292 27.7692 92.5389 26.2968 93.2032 25.1395C93.2032 25.1395 98.8255 15.7095 99.7637 14.2028C99.8322 14.0933 100.202 13.5523 100.216 13.5386C101.798 11.6758 103.9 11.4019 105.824 13.0866C106.455 13.7098 106.804 14.2097 106.804 14.2097H106.79C106.776 14.1994 106.761 14.1909 106.746 14.1823C106.73 14.1737 106.715 14.1652 106.701 14.1549L106.701 14.1549C106.68 14.1412 106.66 14.1275 106.639 14.1207C106.626 14.1138 106.61 14.107 106.595 14.1001C106.579 14.0933 106.564 14.0864 106.55 14.0796C106.537 14.0762 106.525 14.071 106.513 14.0659C106.501 14.0607 106.489 14.0556 106.475 14.0522C106.471 14.0503 106.468 14.0485 106.465 14.0468C106.457 14.0422 106.451 14.0385 106.441 14.0385C106.427 14.0316 106.42 14.0316 106.407 14.0316C106.338 14.0111 106.27 13.9974 106.208 13.9905H106.194Z" fill="white"></path></svg>